<svg xmlns="http://www.w3.org/2000/svg"  viewBox="0 0 24 24" width="25px" height="25px"><path fill="#0077b5" d="m22 0h-20c-1.105 0-2 .895-2 2v20c0 1.105.895 2 2 2h20c1.105 0 2-.895 2-2v-20c0-1.105-.895-2-2-2zm-14.971 21h-3.732v-12.017h3.732zm-1.868-13.657c-1.193 0-2.161-.988-2.161-2.181s.968-2.162 2.161-2.162 2.161.969 2.161 2.162-.968 2.181-2.161 2.181zm15.839 13.656h-.004v.001h-3.723v-5.85c0-1.395-.028-3.183-1.94-3.183-1.94 0-2.237 1.515-2.237 3.081v5.95h-3.729v-12.016h3.579v1.639h.052c.498-.945 1.716-1.941 3.531-1.941 3.776 0 4.471 2.487 4.471 5.717z"/></svg>