<svg xmlns="http://www.w3.org/2000/svg" xmlns:xlink="http://www.w3.org/1999/xlink" width="30" height="30" fill-rule="evenodd" viewBox="0 0 256 256"><g fill="#ed017e" fill-rule="evenodd" stroke="none" stroke-dashoffset="0" stroke-linecap="butt" stroke-linejoin="miter" stroke-miterlimit="10" stroke-width="1" font-family="none" font-size="none" font-weight="none" text-anchor="none" style="mix-blend-mode:normal"><g><path d="M529,598c585,-616 1559,-641 2175,-55c539,512 625,1322 246,1929l1219,1159c124,118 129,315 11,439v0c-118,124 -315,129 -439,11l-1219,-1159c-587,409 -1400,364 -1939,-148c-616,-585 -641,-1559 -55,-2175zM862,914c411,-432 1094,-450 1526,-39c432,411 450,1094 39,1526c-411,432 -1094,450 -1526,39c-432,-411 -450,-1094 -39,-1526z" transform="scale(0.05905,0.05905)"/></g></g></svg>