<svg xmlns="http://www.w3.org/2000/svg" xmlns:xlink="http://www.w3.org/1999/xlink" viewBox="0,0,256,256" width="40px" height="40px" fill-rule="evenodd"><g fill-opacity="0.8" fill="#ed017e" fill-rule="evenodd" stroke="none" stroke-width="1" stroke-linecap="butt" stroke-linejoin="miter" stroke-miterlimit="10" stroke-dasharray="" stroke-dashoffset="0" font-family="none" font-weight="none" font-size="none" text-anchor="none" style="mix-blend-mode: normal"><g transform="scale(10.66667,10.66667)"><path d="M12,1.25c-4.139,0 -7.5,3.361 -7.5,7.5c0,1.941 0.73691,3.88695 1.75391,5.62695c1.469,2.512 3.51341,4.58922 4.56641,5.57422c0.003,0.002 0.00386,0.00386 0.00586,0.00586c0.665,0.606 1.68366,0.60505 2.34766,-0.00195c0.002,-0.002 0.00386,-0.00191 0.00586,-0.00391c1.054,-0.985 3.09741,-3.06222 4.56641,-5.57422c1.017,-1.74 1.75391,-3.68595 1.75391,-5.62695c0,-4.139 -3.361,-7.5 -7.5,-7.5zM12,2.75c3.311,0 6,2.689 6,6c0,1.683 -0.66683,3.36114 -1.54883,4.86914c-1.378,2.357 -3.29902,4.30347 -4.29102,5.23047c-0.09,0.081 -0.22441,0.08191 -0.31641,0.00391c-0.996,-0.931 -2.91692,-2.87837 -4.29492,-5.23437c-0.882,-1.508 -1.54883,-3.18614 -1.54883,-4.86914c0,-3.311 2.689,-6 6,-6zM12,5.25c-1.794,0 -3.25,1.456 -3.25,3.25c0,1.794 1.456,3.25 3.25,3.25c1.794,0 3.25,-1.456 3.25,-3.25c0,-1.794 -1.456,-3.25 -3.25,-3.25zM12,6.75c0.966,0 1.75,0.784 1.75,1.75c0,0.966 -0.784,1.75 -1.75,1.75c-0.966,0 -1.75,-0.784 -1.75,-1.75c0,-0.966 0.784,-1.75 1.75,-1.75zM6,21.25c-0.414,0 -0.75,0.336 -0.75,0.75c0,0.414 0.336,0.75 0.75,0.75h12c0.414,0 0.75,-0.336 0.75,-0.75c0,-0.414 -0.336,-0.75 -0.75,-0.75z"></path></g></g></svg>