<svg xmlns="http://www.w3.org/2000/svg" xmlns:xlink="http://www.w3.org/1999/xlink" width="19" height="19" fill-rule="nonzero" viewBox="0 0 256 256"><g fill="#2bba80" fill-rule="nonzero" stroke="none" stroke-dashoffset="0" stroke-linecap="butt" stroke-linejoin="miter" stroke-miterlimit="10" stroke-width="1" font-family="none" font-size="none" font-weight="none" text-anchor="none" style="mix-blend-mode:normal"><g><path d="M23.85352,7.14731l-3,-2.99981c-0.09473,-0.0957 -0.23242,-0.15624 -0.36035,-0.14647c-0.13574,0.00195 -0.26367,0.05859 -0.35645,0.15624l-8.13672,8.61468l-8.13672,-8.61468c-0.09277,-0.09765 -0.2207,-0.15429 -0.35645,-0.15624c-0.13184,-0.00488 -0.26465,0.05078 -0.36035,0.14647l-3,2.99981c-0.19238,0.19237 -0.19531,0.5029 -0.00781,0.69917l11.5,11.99923c0.09473,0.09863 0.22461,0.15429 0.36133,0.15429c0.13672,0 0.2666,-0.05566 0.36133,-0.15429l11.5,-11.99923c0.1875,-0.19628 0.18457,-0.5068 -0.00781,-0.69917z" transform="scale(10.66667,10.66667)"/></g></g></svg>